#N canvas 0 23 1280 751 10;
#X declare -path sab;
#X msg 289 487 Pressure \$1;
#X obj 250 414 hsl 128 15 0 1.6 0 0 empty empty empty -2 -8 0 10 -262144
-1 -1 0 1;
#X msg 400 515 embRatio;
#X obj 18 473 tgl 15 0 empty empty empty 17 7 0 10 -262144 -1 -1 0
1;
#X msg 21 537 autocompile \$1 100;
#X obj 413 417 hradio 15 1 0 4 empty empty empty 0 -8 0 10 -262144
-1 -1 0;
#X obj 412 441 + 1;
#X floatatom 401 472 5 0 0 0 - - -;
#X msg 401 492 embouchure_ratio \$1;
#X floatatom 287 462 5 0 0 0 - - -;
#X msg 347 556 gate \$1;
#X obj 346 534 tgl 15 0 empty empty empty 17 7 0 10 -262144 -1 -1 0
1;
#X msg 561 486 Nonlinearity \$1;
#X obj 574 427 hsl 128 15 0 0.15 0 0 empty empty empty -2 -8 0 10 -262144
-1 -1 0 1;
#X floatatom 562 458 5 0 0 0 - - -;
#X obj 764 437 hsl 128 15 0 2 0 0 empty empty empty -2 -8 0 10 -262144
-1 -1 0 1;
#X floatatom 752 468 5 0 0 0 - - -;
#X msg 730 492 gain \$1;
#X msg 925 488 freq \$1;
#X floatatom 925 466 5 0 0 0 - - -;
#X obj 928 444 hsl 128 15 261.6 523.2 1 0 empty empty empty -2 -8 0
10 -262144 -1 -1 9527 1;
#X msg 736 595 Vibrato_Gain \$1;
#X obj 739 554 hsl 128 15 0 1 0 0 empty empty empty -2 -8 0 10 -262144
-1 -1 0 1;
#X floatatom 736 576 5 0 0 0 - - -;
#X obj 725 440 tgl 15 0 empty empty empty 17 7 0 10 -262144 -1 -1 0
1;
#X obj 24 40 bang~;
#X obj 250 372 samp~;
#X obj 24 102 s sampleme;
#X obj 92 47 declare -path sab;
#X obj 426 44 bng 15 250 50 0 empty empty empty 17 7 0 10 -262144 -1
-1;
#X obj 25 70 spigot;
#X obj 69 49 tgl 15 0 empty empty empty 17 7 0 10 -262144 -1 -1 1 1
;
#X msg 292 69 1000;
#X obj 470 373 samp~;
#X obj 469 349 +~ 0;
#X obj 814 49 hradio 15 1 0 13 empty empty empty 0 -8 0 10 -262144
-1 -1 9;
#X obj 812 75 t b f;
#X obj 925 420 mtof;
#X obj 761 375 vline~;
#X obj 761 399 samp~;
#X obj 253 15 key;
#X obj 245 36 route 167;
#X msg 761 343 1 \, 1 \$1 \, 0 200 \$1;
#X obj 249 348 +~ 0;
#X obj 294 691 clip~ -1 1;
#X obj 279 727 dac~;
#X obj 851 579 hsl 128 15 0 1 0 0 empty empty empty -2 -8 0 10 -262144
-1 -1 0 1;
#X obj 178 118 menv~ pressure;
#X obj 484 106 menv~ embouchure;
#X obj 471 320 *~ 2;
#X obj 802 12 loadbang;
#X msg 417 88 1000;
#X msg 727 318 2000;
#X obj 293 610 faustgen~ ../vfl;
#X obj 71 17 loadbang;
#X obj 974 170 menv~ blow;
#X msg 626 647 NoiseGain \$1;
#X floatatom 621 623 5 0 0 0 - - -;
#X obj 595 582 hsl 128 15 0.001 0.5 1 0 empty empty empty -2 -8 0 10
-262144 -1 -1 0 1;
#X obj 988 469 menv~ noise;
#X obj 842 676 *~;
#X obj 837 642 *~;
#X obj 1036 120 bng 15 250 50 0 empty empty empty 17 7 0 10 -262144
-1 -1;
#X obj 911 639 lop~ 3000;
#X obj 249 318 *~ 1.4;
#X obj 1025 379 *~ 1.4;
#X msg 682 624 0;
#X obj 468 392 + 0;
#X obj 493 411 f;
#X obj 916 608 noise~;
#X obj 747 674 *~;
#X obj 914 251 tgl 15 0 empty empty empty 17 7 0 10 -262144 -1 -1 0
1;
#X obj 925 397 + 60;
#X obj 292 648 *~ 1;
#X msg 245 529 compile;
#X obj 482 679 acre/acre/scope;
#X connect 0 0 53 0;
#X connect 1 0 9 0;
#X connect 3 0 4 0;
#X connect 4 0 53 0;
#X connect 5 0 6 0;
#X connect 6 0 7 0;
#X connect 7 0 8 0;
#X connect 8 0 53 0;
#X connect 9 0 0 0;
#X connect 10 0 53 0;
#X connect 11 0 10 0;
#X connect 12 0 53 0;
#X connect 13 0 14 0;
#X connect 14 0 12 0;
#X connect 15 0 16 0;
#X connect 16 0 17 0;
#X connect 17 0 53 0;
#X connect 18 0 53 0;
#X connect 19 0 18 0;
#X connect 20 0 19 0;
#X connect 21 0 53 0;
#X connect 22 0 23 0;
#X connect 23 0 21 0;
#X connect 24 0 17 0;
#X connect 25 0 30 0;
#X connect 26 0 1 0;
#X connect 29 0 51 0;
#X connect 29 0 52 0;
#X connect 29 0 62 0;
#X connect 29 0 32 0;
#X connect 30 0 27 0;
#X connect 31 0 30 1;
#X connect 32 0 47 0;
#X connect 33 0 67 0;
#X connect 34 0 33 0;
#X connect 35 0 36 0;
#X connect 36 0 29 0;
#X connect 36 1 72 0;
#X connect 37 0 20 0;
#X connect 38 0 39 0;
#X connect 40 0 41 0;
#X connect 41 0 29 0;
#X connect 42 0 38 0;
#X connect 43 0 26 0;
#X connect 44 0 45 0;
#X connect 44 0 45 1;
#X connect 46 0 61 1;
#X connect 47 0 64 0;
#X connect 48 0 49 0;
#X connect 49 0 34 0;
#X connect 50 0 35 0;
#X connect 51 0 48 0;
#X connect 52 0 42 0;
#X connect 53 0 73 0;
#X connect 54 0 31 0;
#X connect 55 0 70 0;
#X connect 56 0 53 0;
#X connect 57 0 56 0;
#X connect 58 0 57 0;
#X connect 59 0 60 1;
#X connect 60 0 70 0;
#X connect 61 0 60 0;
#X connect 62 0 55 0;
#X connect 62 0 59 0;
#X connect 63 0 61 0;
#X connect 64 0 43 0;
#X connect 66 0 56 0;
#X connect 67 0 68 0;
#X connect 68 0 5 0;
#X connect 69 0 63 0;
#X connect 70 0 53 0;
#X connect 71 0 70 1;
#X connect 72 0 37 0;
#X connect 73 0 44 0;
#X connect 73 0 75 0;
#X connect 74 0 53 0;
