#N canvas 0 37 1280 718 10;
#X obj 281 329 bng 18 250 50 0 empty empty empty 17 7 0 10 -228856
-1 -1;
#X obj 288 374 else/envgen~;
#X obj 169 442 *~;
#X obj 126 489 else/out~;
#X obj 350 274 else/setmess;
#X msg 385 356 1 195 0.47 300 0 2505 0;
#X obj 108 147 else/function;
#X obj 948 142 array set \$0-function;
#X obj 872 299 list length;
#X obj 949 103 array size \$0-function;
#X obj 953 181 array define -k -yrange 0 1 \$0-function;
#A 0 1000 11 0 0 0.61 170 0.8 125 0.87 560 0.94 145 0 0 0 0 0 0 0 0
0 0 0 0 0 0 0 0 0 0 0 0 0 0 0 0 0 0 0 0 0 0 0 0 0 0 0 0 0 0 0 0 0 0
0 0 0 0 0 0 0 0 0 0 0 0 0 0 0 0 0 0 0 0 0 0 0 0 0 0 0 0 0 0 0 0 0 0
0 0 0 0 0 0 0 0 0 0 0 0;
#X obj 953 50 array get \$0-function;
#X obj 956 75 + 1;
#X obj 781 344 list prepend;
#X obj 784 315 t l l;
#X obj 763 146 list split 1;
#X obj 745 230 list split;
#X obj 784 196 list;
#X obj 736 175 t b f;
#X obj 252 253 bng 15 250 50 0 empty empty Store 17 7 0 10 -262144
-1 -1;
#X obj 272 272 bng 15 250 50 0 empty empty Load 17 7 0 10 -262144 -1
-1;
#X obj 112 265 tgl 15 1 empty empty Auto-store 17 7 0 10 -262144 -1
-1 0 1;
#X obj 402 330 spigot;
#X floatatom 179 124 5 0 0 1 duration - -;
#X obj 112 11 inlet;
#X msg 344 23 duration \$1;
#X obj 146 396 tri~ 200;
#X obj 265 124 bng 15 250 50 0 empty empty clear 17 7 0 10 -262144
-1 -1;
#X obj 349 297 t b a;
#X obj 287 418 outlet~;
#X obj 407 55 f;
#X obj 252 26 t b f;
#X msg 402 96 list 0 \$1 0;
#X obj 144 124 bng 15 250 50 0 empty empty empty 17 7 0 10 -262144
-1 -1;
#X obj 244 52 bng 15 250 50 0 empty empty empty 17 7 0 10 -262144 -1
-1;
#X obj 761 407 list prepend;
#X obj 763 107 list split 1;
#X text 714 560 - duration;
#X text 714 570 - length of the remaining;
#X text 714 580 - list as it is generated by function;
#X obj 619 483 list prepend;
#X obj 660 416 loadbang;
#X obj 618 508 list trim;
#X obj 611 616 textfile;
#X msg 669 450 set;
#X obj 617 536 t b a;
#X msg 577 578 write embouchure;
#X obj 529 494 symbol \$1;
#X obj 508 416 loadbang;
#X msg 529 528 set write \$1;
#X obj 530 464 bng 15 250 50 0 empty empty empty 17 7 0 10 -262144
-1 -1;
#X msg 410 524 set read \$1;
#X msg 400 568 read embouchure;
#X obj 404 596 textfile;
#X msg 454 546 rewind \, bang;
#X obj 350 507 t b b;
#X obj 413 621 list;
#X text 714 549 In the array/file we store:;
#X obj 116 60 t b f;
#X obj 61 37 route bang;
#X obj 344 221 loadbang;
#X text 959 17 All the array stuff is obsolete: saving to file now
;
#X connect 0 0 1 0;
#X connect 1 0 29 0;
#X connect 2 0 3 1;
#X connect 2 0 3 0;
#X connect 4 0 28 0;
#X connect 5 0 14 0;
#X connect 6 0 4 0;
#X connect 8 0 12 0;
#X connect 8 0 13 1;
#X connect 11 0 36 0;
#X connect 12 0 9 0;
#X connect 13 0 35 0;
#X connect 14 0 13 0;
#X connect 14 1 8 0;
#X connect 15 0 18 0;
#X connect 15 1 17 1;
#X connect 16 0 6 0;
#X connect 17 0 16 0;
#X connect 18 0 17 0;
#X connect 18 1 16 1;
#X connect 19 0 5 0;
#X connect 20 0 55 0;
#X connect 21 0 22 1;
#X connect 22 0 19 0;
#X connect 23 0 30 1;
#X connect 23 0 31 0;
#X connect 23 0 35 1;
#X connect 24 0 59 0;
#X connect 25 0 6 0;
#X connect 26 0 2 0;
#X connect 27 0 30 0;
#X connect 28 0 22 0;
#X connect 28 1 5 0;
#X connect 28 1 1 0;
#X connect 30 0 32 0;
#X connect 31 0 34 0;
#X connect 31 1 25 0;
#X connect 32 0 6 0;
#X connect 33 0 0 0;
#X connect 34 0 6 0;
#X connect 35 0 7 0;
#X connect 35 0 40 0;
#X connect 36 0 23 0;
#X connect 36 1 15 0;
#X connect 40 0 42 0;
#X connect 41 0 44 0;
#X connect 42 0 45 0;
#X connect 44 0 40 1;
#X connect 45 0 46 0;
#X connect 45 1 43 0;
#X connect 46 0 43 0;
#X connect 47 0 49 0;
#X connect 47 0 51 0;
#X connect 48 0 47 0;
#X connect 49 0 46 0;
#X connect 50 0 47 0;
#X connect 51 0 52 0;
#X connect 52 0 53 0;
#X connect 53 0 56 0;
#X connect 54 0 53 0;
#X connect 55 0 54 0;
#X connect 55 1 52 0;
#X connect 56 0 36 0;
#X connect 58 0 33 0;
#X connect 58 1 23 0;
#X connect 59 0 33 0;
#X connect 59 1 58 0;
#X connect 60 0 20 0;
#X coords 0 -1 1 1 220 190 1 100 100;
