#N canvas 0 23 1280 751 10;
#X declare -path sab;
#X msg 207 451 Pressure \$1;
#X obj 18 433 tgl 15 0 empty empty empty 17 7 0 10 -262144 -1 -1 0
1;
#X msg 21 497 autocompile \$1 100;
#X floatatom 454 397 5 0 0 0 - - -;
#X msg 347 516 gate \$1;
#X obj 346 494 tgl 15 0 empty empty empty 17 7 0 10 -262144 -1 -1 1
1;
#X msg 561 446 Nonlinearity \$1;
#X obj 574 387 hsl 128 15 0 0.15 0 0 empty empty empty -2 -8 0 10 -262144
-1 -1 0 1;
#X floatatom 562 418 5 0 0 0 - - -;
#X obj 764 397 hsl 128 15 0 2 0 0 empty empty empty -2 -8 0 10 -262144
-1 -1 0 1;
#X floatatom 752 428 5 0 0 0 - - -;
#X msg 730 452 gain \$1;
#X msg 924 536 freq \$1;
#X floatatom 924 514 5 0 0 0 - - -;
#X obj 927 492 hsl 128 15 261.6 523.2 1 0 empty empty empty -2 -8 0
10 -262144 -1 -1 10585 1;
#X obj 725 400 tgl 15 0 empty empty empty 17 7 0 10 -262144 -1 -1 0
1;
#X obj 92 67 declare -path sab;
#X obj 982 109 hradio 15 1 0 13 empty empty empty 0 -8 0 10 -262144
-1 -1 10;
#X obj 986 140 t b f;
#X obj 924 468 mtof;
#X obj 282 646 clip~ -1 1;
#X obj 278 714 dac~;
#X obj 976 77 loadbang;
#X obj 1036 140 bng 15 250 50 0 empty empty empty 17 7 0 10 -262144
-1 -1;
#X obj 873 268 tgl 15 1 empty empty empty 17 7 0 10 -262144 -1 -1 1
1;
#X obj 292 608 *~ 1;
#X msg 163 493 compile;
#X obj 615 595 acre/acre/scope;
#X obj 872 218 loadbang;
#X msg 873 244 1;
#X floatatom 922 349 5 0 0 0 - - -;
#X msg 334 471 1;
#X obj 328 444 loadbang;
#X obj 919 312 + 60;
#X floatatom 494 682 5 0 0 0 - - -;
#X obj 484 659 bang~;
#X obj 425 702 snapshot~;
#X floatatom 215 427 5 0 0 0 - - -;
#X obj 244 394 hsl 128 15 0.4 1.9 0 0 empty empty empty -2 -8 0 10
-262144 -1 -1 0 1;
#X msg 265 479 print;
#X obj 288 685 *~ 0.2;
#X obj 62 618 hsl 128 15 0.001 1 1 0 empty empty empty -2 -8 0 10 -262144
-1 -1 0 1;
#X msg 142 664 0;
#X msg 415 418 embouchure_ratio \$1;
#X msg 220 378 1;
#X msg 1080 253 60;
#X msg 1144 265 72;
#X msg 1180 397 84;
#X obj 419 726 nbx 5 20 -1e+37 1e+37 0 0 empty empty empty 0 -8 0 20
-262144 -1 -1 69.7048 256;
#X msg 1004 259 48;
#X msg 937 256 36;
#X obj 369 596 lop~ 70;
#X obj 414 620 fiddle~ 2048;
#X msg 974 258 42;
#X msg 1043 251 54;
#X msg 1115 258 66;
#X msg 1176 334 78;
#X obj 922 376 +;
#X floatatom 999 367 5 0 0 0 - - -;
#X obj 956 376 t b f;
#X floatatom 922 404 10 0 0 0 - - -;
#X obj 443 368 + 0.05;
#X obj 454 337 f;
#X obj 455 302 bng 15 250 50 0 empty empty empty 17 7 0 10 -262144
-1 -1;
#X floatatom 367 251 5 0 0 0 - - -;
#X obj 356 218 keyup;
#X obj 495 366 - 0.05;
#X obj 504 341 f;
#X obj 504 324 bng 15 250 50 0 empty empty empty 17 7 0 10 -262144
-1 -1;
#X obj 110 240 text;
#X obj 923 444 +;
#X floatatom 1000 424 7 0 0 0 - - -;
#X obj 957 433 t b f;
#X obj 591 301 hsl 128 15 0 2 0 0 empty empty empty -2 -8 0 10 -262144
-1 -1 0 1;
#X obj 729 302 hsl 128 15 -1 1 0 0 empty empty empty -2 -8 0 10 -262144
-1 -1 0 1;
#X obj 419 364 bng 15 250 50 0 empty empty empty 17 7 0 10 -262144
-1 -1;
#X msg 397 338 1;
#X obj 564 714 hsl 128 15 56 64 0 0 empty empty empty -2 -8 0 10 -262144
-1 -1 12700 1;
#X obj 372 270 select 167 177;
#N canvas 0 22 903 538 two 0;
#X obj 407 446 line 0 2;
#X obj 493 450 line 0 2;
#X obj 112 117 tgl 15 0 empty empty empty 17 7 0 10 -262144 -1 -1 0
1;
#X msg 393 24 0;
#X obj 266 103 f;
#X obj 294 164 + 1;
#X floatatom 236 130 5 0 0 0 - - -;
#X obj 706 71 bng 15 250 50 0 empty empty empty 17 7 0 10 -262144 -1
-1;
#X obj 259 73 bng 15 250 50 0 empty empty empty 17 7 0 10 -262144 -1
-1;
#X obj 271 127 t f f;
#X msg 160 231 1;
#X msg 201 254 0;
#X obj 149 120 bng 15 250 50 0 empty empty empty 17 7 0 10 -262144
-1 -1;
#X obj 110 139 metro 200;
#X msg 403 421 \$1 200;
#X msg 493 421 \$1 200;
#X obj 410 512 outlet;
#X obj 518 508 outlet;
#X msg 347 112 1;
#X msg 361 129 0.95;
#X msg 380 149 0.9;
#X msg 430 239 0.9;
#X msg 445 260 0.95;
#X msg 455 282 1;
#X msg 395 170 0.85;
#X msg 405 192 0.8;
#X msg 411 216 0.85;
#X msg 507 112 0;
#X msg 521 129 0;
#X msg 540 149 0;
#X msg 555 170 0;
#X msg 565 192 0;
#X msg 571 216 -0.56;
#X msg 590 239 -1.08;
#X msg 605 260 -1.56;
#X msg 615 282 -2.01;
#X obj 402 70 select 0 1 2 3 4 5 6 7 8;
#X connect 0 0 16 0;
#X connect 1 0 17 0;
#X connect 2 0 13 0;
#X connect 3 0 4 1;
#X connect 3 0 2 0;
#X connect 4 0 6 0;
#X connect 4 0 9 0;
#X connect 5 0 4 1;
#X connect 7 0 3 0;
#X connect 8 0 4 0;
#X connect 9 0 36 0;
#X connect 9 1 5 0;
#X connect 10 0 0 0;
#X connect 11 0 1 0;
#X connect 12 0 10 0;
#X connect 12 0 11 0;
#X connect 13 0 8 0;
#X connect 14 0 0 0;
#X connect 15 0 1 0;
#X connect 18 0 14 0;
#X connect 19 0 14 0;
#X connect 20 0 14 0;
#X connect 21 0 14 0;
#X connect 22 0 14 0;
#X connect 23 0 14 0;
#X connect 24 0 14 0;
#X connect 25 0 14 0;
#X connect 26 0 14 0;
#X connect 27 0 15 0;
#X connect 28 0 15 0;
#X connect 29 0 15 0;
#X connect 30 0 15 0;
#X connect 31 0 15 0;
#X connect 32 0 15 0;
#X connect 33 0 15 0;
#X connect 34 0 15 0;
#X connect 35 0 15 0;
#X connect 36 0 18 0;
#X connect 36 0 27 0;
#X connect 36 1 19 0;
#X connect 36 1 28 0;
#X connect 36 2 20 0;
#X connect 36 2 29 0;
#X connect 36 3 24 0;
#X connect 36 3 30 0;
#X connect 36 4 25 0;
#X connect 36 4 31 0;
#X connect 36 5 26 0;
#X connect 36 5 32 0;
#X connect 36 6 21 0;
#X connect 36 6 33 0;
#X connect 36 7 22 0;
#X connect 36 7 34 0;
#X connect 36 8 23 0;
#X connect 36 8 35 0;
#X connect 36 9 7 0;
#X coords 0 -1 1 1 85 60 1 100 100;
#X restore 565 97 pd two down;
#N canvas 0 22 903 538 one 0;
#X obj 407 386 line 0 2;
#X obj 493 390 line 0 2;
#X msg 347 242 1;
#X msg 439 235 0;
#X msg 361 259 0.95;
#X msg 380 279 0.9;
#X msg 395 300 0.95;
#X msg 405 322 1;
#X msg 456 255 0;
#X msg 476 279 0;
#X msg 493 301 -0.5;
#X msg 508 324 -1;
#X obj 402 200 select 0 1 2 3 4;
#X obj 112 117 tgl 15 0 empty empty empty 17 7 0 10 -262144 -1 -1 0
1;
#X msg 393 154 0;
#X obj 266 233 f;
#X obj 294 294 + 1;
#X floatatom 236 260 5 0 0 0 - - -;
#X obj 516 201 bng 15 250 50 0 empty empty empty 17 7 0 10 -262144
-1 -1;
#X obj 259 203 bng 15 250 50 0 empty empty empty 17 7 0 10 -262144
-1 -1;
#X obj 271 257 t f f;
#X msg 528 166 1;
#X msg 569 189 0;
#X obj 149 120 bng 15 250 50 0 empty empty empty 17 7 0 10 -262144
-1 -1;
#X obj 110 139 metro 200;
#X msg 403 361 \$1 200;
#X msg 493 361 \$1 200;
#X obj 410 452 outlet;
#X obj 518 448 outlet;
#X connect 0 0 27 0;
#X connect 1 0 28 0;
#X connect 2 0 25 0;
#X connect 3 0 26 0;
#X connect 4 0 25 0;
#X connect 5 0 25 0;
#X connect 6 0 25 0;
#X connect 7 0 25 0;
#X connect 8 0 26 0;
#X connect 9 0 26 0;
#X connect 10 0 26 0;
#X connect 11 0 26 0;
#X connect 12 0 2 0;
#X connect 12 0 3 0;
#X connect 12 1 4 0;
#X connect 12 1 8 0;
#X connect 12 2 5 0;
#X connect 12 2 9 0;
#X connect 12 3 6 0;
#X connect 12 3 10 0;
#X connect 12 4 7 0;
#X connect 12 4 11 0;
#X connect 12 5 18 0;
#X connect 13 0 24 0;
#X connect 14 0 15 1;
#X connect 14 0 13 0;
#X connect 15 0 17 0;
#X connect 15 0 20 0;
#X connect 16 0 15 1;
#X connect 18 0 14 0;
#X connect 19 0 15 0;
#X connect 20 0 12 0;
#X connect 20 1 16 0;
#X connect 21 0 0 0;
#X connect 22 0 1 0;
#X connect 23 0 21 0;
#X connect 23 0 22 0;
#X connect 24 0 19 0;
#X connect 25 0 0 0;
#X connect 26 0 1 0;
#X coords 0 -1 1 1 85 60 1 100 100;
#X restore 449 102 pd one down;
#N canvas 0 22 903 538 one 0;
#X obj 406 424 line 0 2;
#X obj 493 435 line 0 2;
#X msg 347 242 1;
#X msg 439 235 0;
#X msg 456 255 0;
#X msg 476 279 0;
#X obj 112 117 tgl 15 0 empty empty empty 17 7 0 10 -262144 -1 -1 0
1;
#X msg 393 154 0;
#X obj 266 233 f;
#X obj 294 294 + 1;
#X floatatom 236 260 5 0 0 0 - - -;
#X obj 608 250 bng 15 250 50 0 empty empty empty 17 7 0 10 -262144
-1 -1;
#X obj 259 203 bng 15 250 50 0 empty empty empty 17 7 0 10 -262144
-1 -1;
#X obj 271 257 t f f;
#X msg 528 166 1;
#X msg 569 189 0;
#X obj 149 120 bng 15 250 50 0 empty empty empty 17 7 0 10 -262144
-1 -1;
#X obj 410 482 outlet;
#X obj 518 493 outlet;
#X msg 361 259 1.05;
#X msg 380 279 1.1;
#X msg 395 300 1.15;
#X msg 405 322 1.1;
#X msg 415 342 1.05;
#X msg 425 364 1;
#X obj 403 200 select 0 1 2 3 4 5 6;
#X msg 493 301 0;
#X msg 508 324 0.333;
#X msg 519 350 0.666;
#X msg 528 371 1;
#X obj 110 139 metro 500;
#X msg 492 406 \$1 500;
#X msg 402 399 \$1 500;
#X connect 0 0 17 0;
#X connect 1 0 18 0;
#X connect 2 0 32 0;
#X connect 3 0 31 0;
#X connect 4 0 31 0;
#X connect 5 0 31 0;
#X connect 6 0 30 0;
#X connect 7 0 8 1;
#X connect 7 0 6 0;
#X connect 8 0 10 0;
#X connect 8 0 13 0;
#X connect 9 0 8 1;
#X connect 11 0 7 0;
#X connect 12 0 8 0;
#X connect 13 0 25 0;
#X connect 13 1 9 0;
#X connect 14 0 0 0;
#X connect 15 0 1 0;
#X connect 16 0 14 0;
#X connect 16 0 15 0;
#X connect 19 0 32 0;
#X connect 20 0 32 0;
#X connect 21 0 32 0;
#X connect 22 0 32 0;
#X connect 23 0 32 0;
#X connect 24 0 32 0;
#X connect 25 0 2 0;
#X connect 25 0 3 0;
#X connect 25 1 19 0;
#X connect 25 1 4 0;
#X connect 25 2 20 0;
#X connect 25 2 5 0;
#X connect 25 3 21 0;
#X connect 25 3 26 0;
#X connect 25 4 22 0;
#X connect 25 4 27 0;
#X connect 25 5 28 0;
#X connect 25 5 23 0;
#X connect 25 6 29 0;
#X connect 25 6 24 0;
#X connect 25 7 11 0;
#X connect 26 0 31 0;
#X connect 27 0 31 0;
#X connect 28 0 31 0;
#X connect 29 0 31 0;
#X connect 30 0 12 0;
#X connect 31 0 1 0;
#X connect 32 0 0 0;
#X coords 0 -1 1 1 85 60 1 100 100;
#X restore 436 16 pd one up;
#N canvas 0 22 1052 712 two 0;
#X obj 424 530 line 0 2;
#X obj 661 585 line 0 2;
#X msg 347 242 1;
#X obj 112 117 tgl 15 0 empty empty empty 17 7 0 10 -262144 -1 -1 0
1;
#X msg 393 154 0;
#X obj 266 233 f;
#X obj 294 294 + 1;
#X floatatom 236 260 5 0 0 0 - - -;
#X obj 644 228 bng 15 250 50 0 empty empty empty 17 7 0 10 -262144
-1 -1;
#X obj 259 203 bng 15 250 50 0 empty empty empty 17 7 0 10 -262144
-1 -1;
#X obj 271 257 t f f;
#X msg 652 126 1;
#X msg 693 149 0;
#X obj 149 120 bng 15 250 50 0 empty empty empty 17 7 0 10 -262144
-1 -1;
#X obj 110 139 metro 200;
#X msg 420 505 \$1 200;
#X msg 661 556 \$1 200;
#X obj 428 588 outlet;
#X obj 686 643 outlet;
#X msg 361 259 1.05;
#X msg 380 279 1.1;
#X msg 395 300 1.15;
#X msg 406 321 1.2;
#X msg 420 338 1.25;
#X msg 439 358 1.3;
#X msg 454 379 1.25;
#X msg 463 398 1.2;
#X msg 477 415 1.15;
#X msg 497 435 1.1;
#X msg 511 456 1.05;
#X msg 523 479 1;
#X msg 477 242 0;
#X msg 491 259 0;
#X msg 510 279 0;
#X msg 525 300 0;
#X msg 536 321 0;
#X msg 550 338 0;
#X msg 569 358 0;
#X msg 584 379 0.3;
#X msg 593 398 0.62;
#X msg 607 415 0.95;
#X msg 627 435 1.28;
#X msg 641 456 1.64;
#X msg 653 479 2;
#X obj 403 200 select 0 1 2 3 4 5 6 7 8 9 10 11 12 13;
#X connect 0 0 17 0;
#X connect 1 0 18 0;
#X connect 2 0 15 0;
#X connect 3 0 14 0;
#X connect 4 0 5 1;
#X connect 4 0 3 0;
#X connect 5 0 7 0;
#X connect 5 0 10 0;
#X connect 6 0 5 1;
#X connect 8 0 4 0;
#X connect 9 0 5 0;
#X connect 10 0 44 0;
#X connect 10 1 6 0;
#X connect 11 0 0 0;
#X connect 12 0 1 0;
#X connect 13 0 11 0;
#X connect 13 0 12 0;
#X connect 14 0 9 0;
#X connect 15 0 0 0;
#X connect 16 0 1 0;
#X connect 19 0 15 0;
#X connect 20 0 15 0;
#X connect 21 0 15 0;
#X connect 22 0 15 0;
#X connect 23 0 15 0;
#X connect 24 0 15 0;
#X connect 25 0 15 0;
#X connect 26 0 15 0;
#X connect 27 0 15 0;
#X connect 28 0 15 0;
#X connect 29 0 15 0;
#X connect 30 0 15 0;
#X connect 31 0 16 0;
#X connect 32 0 16 0;
#X connect 33 0 16 0;
#X connect 34 0 16 0;
#X connect 35 0 16 0;
#X connect 36 0 16 0;
#X connect 37 0 16 0;
#X connect 38 0 16 0;
#X connect 39 0 16 0;
#X connect 40 0 16 0;
#X connect 41 0 16 0;
#X connect 42 0 16 0;
#X connect 43 0 16 0;
#X connect 44 0 2 0;
#X connect 44 0 31 0;
#X connect 44 1 19 0;
#X connect 44 1 32 0;
#X connect 44 2 20 0;
#X connect 44 2 33 0;
#X connect 44 3 21 0;
#X connect 44 3 34 0;
#X connect 44 4 22 0;
#X connect 44 4 35 0;
#X connect 44 5 23 0;
#X connect 44 5 36 0;
#X connect 44 6 24 0;
#X connect 44 6 37 0;
#X connect 44 7 25 0;
#X connect 44 7 38 0;
#X connect 44 8 26 0;
#X connect 44 8 39 0;
#X connect 44 9 27 0;
#X connect 44 9 40 0;
#X connect 44 10 28 0;
#X connect 44 10 41 0;
#X connect 44 11 29 0;
#X connect 44 11 42 0;
#X connect 44 12 30 0;
#X connect 44 12 43 0;
#X connect 44 14 8 0;
#X coords 0 -1 1 1 85 60 1 100 100;
#X restore 532 22 pd two up;
#N canvas 0 6 1280 753 three 0;
#X obj 440 649 line 0 2;
#X obj 738 660 line 0 2;
#X obj 112 117 tgl 15 0 empty empty empty 17 7 0 10 -262144 -1 -1 0
1;
#X msg 413 34 0;
#X obj 273 29 f;
#X obj 301 90 + 1;
#X floatatom 243 56 5 0 0 0 - - -;
#X obj 869 61 bng 15 250 50 0 empty empty empty 17 7 0 10 -262144 -1
-1;
#X obj 266 -1 bng 15 250 50 0 empty empty empty 17 7 0 10 -262144 -1
-1;
#X obj 278 53 t f f;
#X msg 672 6 1;
#X msg 713 29 0;
#X obj 149 120 bng 15 250 50 0 empty empty empty 17 7 0 10 -262144
-1 -1;
#X obj 110 139 metro 200;
#X msg 436 624 \$1 200;
#X msg 738 631 \$1 200;
#X obj 444 686 outlet;
#X obj 743 689 outlet;
#X msg 362 130 1;
#X msg 376 147 1.05;
#X msg 395 167 1.1;
#X msg 410 188 1.15;
#X msg 421 209 1.2;
#X msg 435 226 1.25;
#X msg 454 246 1.3;
#X msg 603 501 1.25;
#X msg 612 520 1.2;
#X msg 626 537 1.15;
#X msg 632 558 1.1;
#X msg 646 579 1.05;
#X msg 658 602 1;
#X msg 460 264 1.35;
#X msg 474 281 1.4;
#X msg 483 300 1.45;
#X msg 498 321 1.5;
#X msg 509 342 1.55;
#X msg 523 359 1.6;
#X msg 529 378 1.55;
#X msg 538 397 1.5;
#X msg 552 414 1.45;
#X msg 572 434 1.4;
#X msg 586 455 1.35;
#X msg 542 140 0;
#X msg 556 157 0;
#X msg 575 177 0;
#X msg 590 198 0;
#X msg 601 219 0;
#X msg 615 236 0;
#X msg 634 256 0;
#X msg 640 274 0;
#X msg 654 291 0;
#X msg 663 310 0;
#X msg 678 331 0;
#X msg 689 352 0;
#X msg 703 369 0;
#X msg 709 388 0.21;
#X msg 718 407 0.42;
#X msg 732 424 0.64;
#X msg 752 444 0.88;
#X msg 766 465 1.12;
#X msg 778 486 1.37;
#X msg 783 511 1.53;
#X msg 792 530 1.9;
#X msg 806 547 2.18;
#X msg 812 568 2.48;
#X msg 826 589 2.72;
#X msg 838 612 3.02;
#X obj 402 77 select 0 1 2 3 4 5 6 7 8 9 10 11 12 13 14 15 16 17 18
19 20 21 22 23 24;
#X msg 598 476 1.3;
#X connect 0 0 16 0;
#X connect 1 0 17 0;
#X connect 2 0 13 0;
#X connect 3 0 4 1;
#X connect 3 0 2 0;
#X connect 4 0 6 0;
#X connect 4 0 9 0;
#X connect 5 0 4 1;
#X connect 7 0 3 0;
#X connect 8 0 4 0;
#X connect 9 0 67 0;
#X connect 9 1 5 0;
#X connect 10 0 0 0;
#X connect 11 0 1 0;
#X connect 12 0 10 0;
#X connect 12 0 11 0;
#X connect 13 0 8 0;
#X connect 14 0 0 0;
#X connect 15 0 1 0;
#X connect 18 0 14 0;
#X connect 19 0 14 0;
#X connect 20 0 14 0;
#X connect 21 0 14 0;
#X connect 22 0 14 0;
#X connect 23 0 14 0;
#X connect 24 0 14 0;
#X connect 25 0 14 0;
#X connect 26 0 14 0;
#X connect 27 0 14 0;
#X connect 28 0 14 0;
#X connect 29 0 14 0;
#X connect 30 0 14 0;
#X connect 31 0 14 0;
#X connect 32 0 14 0;
#X connect 33 0 14 0;
#X connect 34 0 14 0;
#X connect 35 0 14 0;
#X connect 36 0 14 0;
#X connect 37 0 14 0;
#X connect 38 0 14 0;
#X connect 39 0 14 0;
#X connect 40 0 14 0;
#X connect 41 0 14 0;
#X connect 42 0 15 0;
#X connect 43 0 15 0;
#X connect 44 0 15 0;
#X connect 45 0 15 0;
#X connect 46 0 15 0;
#X connect 47 0 15 0;
#X connect 48 0 15 0;
#X connect 49 0 15 0;
#X connect 50 0 15 0;
#X connect 51 0 15 0;
#X connect 52 0 15 0;
#X connect 53 0 15 0;
#X connect 54 0 15 0;
#X connect 55 0 15 0;
#X connect 56 0 15 0;
#X connect 57 0 15 0;
#X connect 58 0 15 0;
#X connect 59 0 15 0;
#X connect 60 0 15 0;
#X connect 61 0 15 0;
#X connect 62 0 15 0;
#X connect 63 0 15 0;
#X connect 64 0 15 0;
#X connect 65 0 15 0;
#X connect 66 0 15 0;
#X connect 67 0 18 0;
#X connect 67 0 42 0;
#X connect 67 1 19 0;
#X connect 67 1 43 0;
#X connect 67 2 20 0;
#X connect 67 2 44 0;
#X connect 67 3 21 0;
#X connect 67 3 45 0;
#X connect 67 4 22 0;
#X connect 67 4 46 0;
#X connect 67 5 23 0;
#X connect 67 5 47 0;
#X connect 67 6 24 0;
#X connect 67 6 48 0;
#X connect 67 7 31 0;
#X connect 67 7 49 0;
#X connect 67 8 32 0;
#X connect 67 8 50 0;
#X connect 67 9 33 0;
#X connect 67 9 51 0;
#X connect 67 10 34 0;
#X connect 67 10 52 0;
#X connect 67 11 35 0;
#X connect 67 11 53 0;
#X connect 67 12 36 0;
#X connect 67 12 54 0;
#X connect 67 13 37 0;
#X connect 67 13 55 0;
#X connect 67 14 38 0;
#X connect 67 14 56 0;
#X connect 67 15 39 0;
#X connect 67 15 57 0;
#X connect 67 16 40 0;
#X connect 67 16 58 0;
#X connect 67 17 41 0;
#X connect 67 17 59 0;
#X connect 67 18 68 0;
#X connect 67 18 60 0;
#X connect 67 19 25 0;
#X connect 67 19 61 0;
#X connect 67 20 26 0;
#X connect 67 20 62 0;
#X connect 67 21 27 0;
#X connect 67 21 63 0;
#X connect 67 22 28 0;
#X connect 67 22 64 0;
#X connect 67 23 29 0;
#X connect 67 23 65 0;
#X connect 67 24 30 0;
#X connect 67 24 66 0;
#X connect 67 25 7 0;
#X connect 68 0 14 0;
#X coords 0 -1 1 1 114 61 1 100 100;
#X restore 635 23 pd three up;
#N canvas 0 6 1280 768 four 0;
#X obj 440 649 line 0 2;
#X obj 1025 663 line 0 2;
#X obj 112 117 tgl 15 0 empty empty empty 17 7 0 10 -262144 -1 -1 0
1;
#X msg 413 34 0;
#X obj 273 29 f;
#X obj 301 90 + 1;
#X floatatom 243 56 5 0 0 0 - - -;
#X obj 869 61 bng 15 250 50 0 empty empty empty 17 7 0 10 -262144 -1
-1;
#X obj 266 -1 bng 15 250 50 0 empty empty empty 17 7 0 10 -262144 -1
-1;
#X obj 278 53 t f f;
#X msg 672 6 1;
#X msg 713 29 0;
#X obj 149 120 bng 15 250 50 0 empty empty empty 17 7 0 10 -262144
-1 -1;
#X obj 444 686 outlet;
#X obj 1030 692 outlet;
#X floatatom 402 682 5 0 0 0 - - -;
#X floatatom 980 690 5 0 0 0 - - -;
#X msg 303 7 4;
#X msg 362 130 1;
#X msg 376 147 1.05;
#X msg 395 167 1.1;
#X msg 410 188 1.15;
#X msg 421 209 1.2;
#X msg 435 226 1.25;
#X msg 454 246 1.3;
#X msg 673 621 1.25;
#X msg 682 640 1.2;
#X msg 696 657 1.15;
#X msg 702 678 1.1;
#X msg 716 699 1.05;
#X msg 728 722 1;
#X msg 460 264 1.35;
#X msg 474 281 1.4;
#X msg 483 300 1.45;
#X msg 498 321 1.5;
#X msg 509 342 1.55;
#X msg 599 498 1.55;
#X msg 608 517 1.5;
#X msg 622 534 1.45;
#X msg 642 554 1.4;
#X msg 656 575 1.35;
#X msg 668 596 1.3;
#X msg 523 359 1.6;
#X msg 526 378 1.65;
#X msg 535 397 1.7;
#X msg 550 418 1.75;
#X msg 561 439 1.7;
#X msg 576 459 1.65;
#X msg 586 478 1.6;
#X msg 542 130 0;
#X msg 556 147 0;
#X msg 575 167 0;
#X msg 590 188 0;
#X msg 601 209 0;
#X msg 615 226 0;
#X msg 634 246 0;
#X msg 640 264 0;
#X msg 654 281 0;
#X msg 663 300 0;
#X msg 678 321 0;
#X msg 689 342 0;
#X msg 703 359 0;
#X msg 706 378 0;
#X msg 715 397 0;
#X msg 730 418 0;
#X msg 741 439 0.22;
#X msg 756 459 0.44;
#X msg 766 478 0.66;
#X msg 779 498 0.89;
#X msg 788 517 1.12;
#X msg 802 534 1.37;
#X msg 822 554 1.61;
#X msg 836 575 1.87;
#X msg 848 596 2.14;
#X msg 853 621 2.43;
#X msg 862 640 2.82;
#X msg 876 657 3.13;
#X msg 882 678 3.45;
#X msg 896 699 3.73;
#X msg 908 722 4.03;
#X obj 402 77 select 0 1 2 3 4 5 6 7 8 9 10 11 12 13 14 15 16 17 18
19 20 21 22 23 24 25 26 27 28 29 30;
#X obj 110 139 metro 50;
#X msg 436 624 \$1 50;
#X msg 1025 634 \$1 50;
#X connect 0 0 13 0;
#X connect 0 0 15 0;
#X connect 1 0 14 0;
#X connect 1 0 16 0;
#X connect 2 0 81 0;
#X connect 3 0 4 1;
#X connect 3 0 2 0;
#X connect 4 0 6 0;
#X connect 4 0 9 0;
#X connect 5 0 4 1;
#X connect 7 0 3 0;
#X connect 8 0 4 0;
#X connect 9 0 80 0;
#X connect 9 1 5 0;
#X connect 10 0 0 0;
#X connect 11 0 1 0;
#X connect 12 0 10 0;
#X connect 12 0 11 0;
#X connect 17 0 4 0;
#X connect 18 0 82 0;
#X connect 19 0 82 0;
#X connect 20 0 82 0;
#X connect 21 0 82 0;
#X connect 22 0 82 0;
#X connect 23 0 82 0;
#X connect 24 0 82 0;
#X connect 25 0 82 0;
#X connect 26 0 82 0;
#X connect 27 0 82 0;
#X connect 28 0 82 0;
#X connect 29 0 82 0;
#X connect 30 0 82 0;
#X connect 31 0 82 0;
#X connect 32 0 82 0;
#X connect 33 0 82 0;
#X connect 34 0 82 0;
#X connect 35 0 82 0;
#X connect 36 0 82 0;
#X connect 37 0 82 0;
#X connect 38 0 82 0;
#X connect 39 0 82 0;
#X connect 40 0 82 0;
#X connect 41 0 82 0;
#X connect 42 0 82 0;
#X connect 43 0 82 0;
#X connect 44 0 82 0;
#X connect 45 0 82 0;
#X connect 46 0 82 0;
#X connect 47 0 82 0;
#X connect 48 0 82 0;
#X connect 49 0 83 0;
#X connect 50 0 83 0;
#X connect 51 0 83 0;
#X connect 52 0 83 0;
#X connect 53 0 83 0;
#X connect 54 0 83 0;
#X connect 55 0 83 0;
#X connect 56 0 83 0;
#X connect 57 0 83 0;
#X connect 58 0 83 0;
#X connect 59 0 83 0;
#X connect 60 0 83 0;
#X connect 61 0 83 0;
#X connect 62 0 83 0;
#X connect 63 0 83 0;
#X connect 64 0 83 0;
#X connect 65 0 83 0;
#X connect 66 0 83 0;
#X connect 67 0 83 0;
#X connect 68 0 83 0;
#X connect 69 0 83 0;
#X connect 70 0 83 0;
#X connect 71 0 83 0;
#X connect 72 0 83 0;
#X connect 73 0 83 0;
#X connect 74 0 83 0;
#X connect 75 0 83 0;
#X connect 76 0 83 0;
#X connect 77 0 83 0;
#X connect 78 0 83 0;
#X connect 79 0 83 0;
#X connect 80 0 49 0;
#X connect 80 0 18 0;
#X connect 80 1 50 0;
#X connect 80 1 19 0;
#X connect 80 2 51 0;
#X connect 80 2 20 0;
#X connect 80 3 52 0;
#X connect 80 3 21 0;
#X connect 80 4 53 0;
#X connect 80 4 22 0;
#X connect 80 5 54 0;
#X connect 80 5 23 0;
#X connect 80 6 55 0;
#X connect 80 6 24 0;
#X connect 80 7 56 0;
#X connect 80 7 31 0;
#X connect 80 8 57 0;
#X connect 80 8 32 0;
#X connect 80 9 58 0;
#X connect 80 9 33 0;
#X connect 80 10 59 0;
#X connect 80 10 34 0;
#X connect 80 11 60 0;
#X connect 80 11 35 0;
#X connect 80 12 61 0;
#X connect 80 12 42 0;
#X connect 80 13 62 0;
#X connect 80 13 43 0;
#X connect 80 14 63 0;
#X connect 80 14 44 0;
#X connect 80 15 64 0;
#X connect 80 15 45 0;
#X connect 80 16 65 0;
#X connect 80 16 46 0;
#X connect 80 17 66 0;
#X connect 80 17 47 0;
#X connect 80 18 67 0;
#X connect 80 18 48 0;
#X connect 80 19 68 0;
#X connect 80 19 36 0;
#X connect 80 20 69 0;
#X connect 80 20 37 0;
#X connect 80 21 70 0;
#X connect 80 21 38 0;
#X connect 80 22 71 0;
#X connect 80 22 39 0;
#X connect 80 23 72 0;
#X connect 80 23 40 0;
#X connect 80 24 73 0;
#X connect 80 24 41 0;
#X connect 80 25 74 0;
#X connect 80 25 25 0;
#X connect 80 26 75 0;
#X connect 80 26 26 0;
#X connect 80 27 76 0;
#X connect 80 27 27 0;
#X connect 80 28 77 0;
#X connect 80 28 28 0;
#X connect 80 29 78 0;
#X connect 80 29 29 0;
#X connect 80 30 79 0;
#X connect 80 30 30 0;
#X connect 80 31 7 0;
#X connect 81 0 8 0;
#X connect 82 0 0 0;
#X connect 83 0 1 0;
#X coords 0 -1 1 1 114 61 1 100 100;
#X restore 760 21 pd four up;
#N canvas 0 22 903 538 three 0;
#X obj 407 446 line 0 2;
#X obj 493 450 line 0 2;
#X obj 112 117 tgl 15 0 empty empty empty 17 7 0 10 -262144 -1 -1 0
1;
#X msg 393 24 0;
#X obj 266 103 f;
#X obj 294 164 + 1;
#X floatatom 236 130 5 0 0 0 - - -;
#X obj 706 71 bng 15 250 50 0 empty empty empty 17 7 0 10 -262144 -1
-1;
#X obj 259 73 bng 15 250 50 0 empty empty empty 17 7 0 10 -262144 -1
-1;
#X obj 271 127 t f f;
#X msg 160 231 1;
#X msg 201 254 0;
#X obj 149 120 bng 15 250 50 0 empty empty empty 17 7 0 10 -262144
-1 -1;
#X obj 110 139 metro 200;
#X msg 403 421 \$1 200;
#X msg 493 421 \$1 200;
#X obj 410 512 outlet;
#X obj 518 508 outlet;
#X msg 352 110 1;
#X msg 361 129 0.95;
#X msg 373 149 0.9;
#X msg 441 269 0.9;
#X msg 453 287 0.95;
#X msg 462 305 1;
#X msg 388 170 0.85;
#X msg 398 192 0.8;
#X msg 428 250 0.85;
#X msg 408 212 0.75;
#X msg 418 232 0.8;
#X msg 499 120 0;
#X msg 508 139 0;
#X msg 520 159 0;
#X msg 535 180 0;
#X msg 545 202 0;
#X msg 555 222 0;
#X msg 565 242 -0.67;
#X msg 575 260 -1.3;
#X msg 588 279 -1.9;
#X msg 600 297 -2.47;
#X msg 609 315 -3.02;
#X obj 402 70 select 0 1 2 3 4 5 6 7 8 9 10;
#X connect 0 0 16 0;
#X connect 1 0 17 0;
#X connect 2 0 13 0;
#X connect 3 0 4 1;
#X connect 3 0 2 0;
#X connect 4 0 6 0;
#X connect 4 0 9 0;
#X connect 5 0 4 1;
#X connect 7 0 3 0;
#X connect 8 0 4 0;
#X connect 9 0 40 0;
#X connect 9 1 5 0;
#X connect 10 0 0 0;
#X connect 11 0 1 0;
#X connect 12 0 10 0;
#X connect 12 0 11 0;
#X connect 13 0 8 0;
#X connect 14 0 0 0;
#X connect 15 0 1 0;
#X connect 18 0 14 0;
#X connect 19 0 14 0;
#X connect 20 0 14 0;
#X connect 21 0 14 0;
#X connect 22 0 14 0;
#X connect 23 0 14 0;
#X connect 24 0 14 0;
#X connect 25 0 14 0;
#X connect 26 0 14 0;
#X connect 27 0 14 0;
#X connect 28 0 14 0;
#X connect 29 0 15 0;
#X connect 30 0 15 0;
#X connect 31 0 15 0;
#X connect 32 0 15 0;
#X connect 33 0 15 0;
#X connect 34 0 15 0;
#X connect 35 0 15 0;
#X connect 36 0 15 0;
#X connect 37 0 15 0;
#X connect 38 0 15 0;
#X connect 39 0 15 0;
#X connect 40 0 29 0;
#X connect 40 0 18 0;
#X connect 40 1 30 0;
#X connect 40 1 19 0;
#X connect 40 2 31 0;
#X connect 40 2 20 0;
#X connect 40 3 32 0;
#X connect 40 3 24 0;
#X connect 40 4 33 0;
#X connect 40 4 25 0;
#X connect 40 5 34 0;
#X connect 40 5 27 0;
#X connect 40 6 35 0;
#X connect 40 6 28 0;
#X connect 40 7 36 0;
#X connect 40 7 26 0;
#X connect 40 8 37 0;
#X connect 40 8 21 0;
#X connect 40 9 38 0;
#X connect 40 9 22 0;
#X connect 40 10 39 0;
#X connect 40 10 23 0;
#X connect 40 11 7 0;
#X coords 0 -1 1 1 85 60 1 100 100;
#X restore 673 100 pd three down;
#N canvas 0 23 903 538 four 0;
#X obj 407 446 line 0 2;
#X obj 643 451 line 0 2;
#X obj 112 117 tgl 15 0 empty empty empty 17 7 0 10 -262144 -1 -1 0
1;
#X msg 393 24 0;
#X obj 266 103 f;
#X obj 294 164 + 1;
#X floatatom 236 130 5 0 0 0 - - -;
#X obj 706 71 bng 15 250 50 0 empty empty empty 17 7 0 10 -262144 -1
-1;
#X obj 259 73 bng 15 250 50 0 empty empty empty 17 7 0 10 -262144 -1
-1;
#X obj 271 127 t f f;
#X msg 160 231 1;
#X msg 201 254 0;
#X obj 149 120 bng 15 250 50 0 empty empty empty 17 7 0 10 -262144
-1 -1;
#X obj 410 512 outlet;
#X obj 668 509 outlet;
#X msg 352 110 1;
#X msg 361 129 0.95;
#X msg 373 149 0.9;
#X msg 491 354 0.9;
#X msg 503 372 0.95;
#X msg 512 390 1;
#X msg 388 170 0.85;
#X msg 398 192 0.8;
#X msg 478 335 0.85;
#X msg 408 212 0.75;
#X msg 468 317 0.8;
#X text 781 138 1 \, 0 \, 60 0.95 \, 0 \, 59.78 0.9 \, 0 \, 59.52 0.85
\, 0 \, 59.24 0.8 \, 0 \, 58.92 0.75 \, 0 \, 58.56 0.7 \, 0 \, 58.15
0.65 \, 0 \, 57.66 0.7 \, -0.74 \, 57.42 0.75 \, -1.38 \, 57.19 0.8
\, -1.97 \, 56.96 0.85 \, -2.53 \, 56.72 0.9 \, -3.06 \, 56.48 0.95
\, -3.56 \, 56.24 1 \, -4.02 \, 56;
#X msg 456 296 0.75;
#X msg 423 231 0.7;
#X msg 438 252 0.65;
#X msg 448 274 0.7;
#X msg 572 110 0;
#X msg 581 129 0;
#X msg 593 149 0;
#X msg 608 170 0;
#X msg 618 192 0;
#X msg 628 212 0;
#X msg 643 231 0;
#X msg 658 252 0;
#X msg 668 274 -0.74;
#X msg 676 296 -1.38;
#X msg 688 317 -1.97;
#X msg 698 335 -2.53;
#X msg 711 354 -3.06;
#X msg 723 372 -3.56;
#X msg 732 390 -4.02;
#X obj 402 70 select 0 1 2 3 4 5 6 7 8 9 10 11 12 13 14;
#X obj 110 139 metro 100;
#X msg 403 421 \$1 100;
#X msg 643 422 \$1 100;
#X connect 0 0 13 0;
#X connect 1 0 14 0;
#X connect 2 0 47 0;
#X connect 3 0 4 1;
#X connect 3 0 2 0;
#X connect 4 0 6 0;
#X connect 4 0 9 0;
#X connect 5 0 4 1;
#X connect 7 0 3 0;
#X connect 8 0 4 0;
#X connect 9 0 46 0;
#X connect 9 1 5 0;
#X connect 10 0 0 0;
#X connect 11 0 1 0;
#X connect 12 0 10 0;
#X connect 12 0 11 0;
#X connect 15 0 48 0;
#X connect 16 0 48 0;
#X connect 17 0 48 0;
#X connect 18 0 48 0;
#X connect 19 0 48 0;
#X connect 20 0 48 0;
#X connect 21 0 48 0;
#X connect 22 0 48 0;
#X connect 23 0 48 0;
#X connect 24 0 48 0;
#X connect 25 0 48 0;
#X connect 27 0 48 0;
#X connect 28 0 48 0;
#X connect 29 0 48 0;
#X connect 30 0 48 0;
#X connect 31 0 49 0;
#X connect 32 0 49 0;
#X connect 33 0 49 0;
#X connect 34 0 49 0;
#X connect 35 0 49 0;
#X connect 36 0 49 0;
#X connect 37 0 49 0;
#X connect 38 0 49 0;
#X connect 39 0 49 0;
#X connect 40 0 49 0;
#X connect 41 0 49 0;
#X connect 42 0 49 0;
#X connect 43 0 49 0;
#X connect 44 0 49 0;
#X connect 45 0 49 0;
#X connect 46 0 15 0;
#X connect 46 0 31 0;
#X connect 46 1 16 0;
#X connect 46 1 32 0;
#X connect 46 2 17 0;
#X connect 46 2 33 0;
#X connect 46 3 21 0;
#X connect 46 3 34 0;
#X connect 46 4 22 0;
#X connect 46 4 35 0;
#X connect 46 5 24 0;
#X connect 46 5 36 0;
#X connect 46 6 28 0;
#X connect 46 6 37 0;
#X connect 46 7 29 0;
#X connect 46 7 38 0;
#X connect 46 8 30 0;
#X connect 46 8 39 0;
#X connect 46 9 27 0;
#X connect 46 9 40 0;
#X connect 46 10 25 0;
#X connect 46 10 41 0;
#X connect 46 11 23 0;
#X connect 46 11 42 0;
#X connect 46 12 18 0;
#X connect 46 12 43 0;
#X connect 46 13 19 0;
#X connect 46 13 44 0;
#X connect 46 14 20 0;
#X connect 46 14 45 0;
#X connect 46 15 7 0;
#X connect 47 0 8 0;
#X connect 48 0 0 0;
#X connect 49 0 1 0;
#X coords 0 -1 1 1 85 60 1 100 100;
#X restore 775 99 pd four down;
#X obj 407 676 lop~ 1;
#X obj 631 493 adc~;
#X obj 292 569 faustgen~ ../vfl;
#X obj 141 552 env~;
#X floatatom 140 579 5 0 0 0 - - -;
#X obj 189 302 delay 500;
#X msg 125 322 0.5;
#X floatatom 192 338 5 0 0 0 - - -;
#X obj 184 248 bng 15 250 50 0 empty empty empty 17 7 0 10 -262144
-1 -1;
#X msg 1157 288 74;
#X msg 1169 313 76;
#X msg 1179 355 80;
#X msg 1181 377 82;
#X floatatom 838 672 5 0 0 0 - - -;
#X obj 828 649 bang~;
#X obj 769 692 snapshot~;
#X obj 763 716 nbx 5 20 -1e+37 1e+37 0 0 empty empty empty 0 -8 0 20
-262144 -1 -1 66.0306 256;
#X obj 713 586 lop~ 70;
#X obj 758 610 fiddle~ 2048;
#X obj 908 704 hsl 128 15 56 64 0 0 empty empty empty -2 -8 0 10 -262144
-1 -1 12700 1;
#X obj 751 666 lop~ 1;
#X connect 0 0 89 0;
#X connect 1 0 2 0;
#X connect 2 0 89 0;
#X connect 3 0 43 0;
#X connect 3 0 62 1;
#X connect 3 0 67 1;
#X connect 4 0 89 0;
#X connect 5 0 4 0;
#X connect 6 0 89 0;
#X connect 7 0 8 0;
#X connect 8 0 6 0;
#X connect 9 0 10 0;
#X connect 10 0 11 0;
#X connect 11 0 89 0;
#X connect 12 0 89 0;
#X connect 13 0 12 0;
#X connect 14 0 13 0;
#X connect 15 0 11 0;
#X connect 17 0 18 0;
#X connect 18 1 33 0;
#X connect 19 0 14 0;
#X connect 20 0 40 0;
#X connect 20 0 90 0;
#X connect 22 0 17 0;
#X connect 25 0 20 0;
#X connect 25 0 27 0;
#X connect 26 0 89 0;
#X connect 28 0 29 0;
#X connect 29 0 24 0;
#X connect 30 0 57 0;
#X connect 31 0 5 0;
#X connect 32 0 31 0;
#X connect 33 0 30 0;
#X connect 35 0 36 0;
#X connect 36 0 48 0;
#X connect 36 0 77 0;
#X connect 37 0 0 0;
#X connect 38 0 37 0;
#X connect 39 0 89 0;
#X connect 40 0 21 0;
#X connect 40 0 21 1;
#X connect 41 0 40 1;
#X connect 42 0 40 1;
#X connect 43 0 89 0;
#X connect 44 0 37 0;
#X connect 45 0 30 0;
#X connect 46 0 30 0;
#X connect 47 0 30 0;
#X connect 49 0 30 0;
#X connect 50 0 30 0;
#X connect 51 0 52 0;
#X connect 52 2 87 0;
#X connect 53 0 30 0;
#X connect 54 0 30 0;
#X connect 55 0 30 0;
#X connect 56 0 30 0;
#X connect 57 0 60 0;
#X connect 58 0 59 0;
#X connect 59 0 57 0;
#X connect 59 1 57 1;
#X connect 60 0 70 0;
#X connect 61 0 3 0;
#X connect 62 0 61 0;
#X connect 63 0 62 0;
#X connect 64 0 78 0;
#X connect 65 0 64 0;
#X connect 66 0 3 0;
#X connect 67 0 66 0;
#X connect 68 0 67 0;
#X connect 70 0 19 0;
#X connect 71 0 72 0;
#X connect 72 0 70 0;
#X connect 72 1 70 1;
#X connect 73 0 43 0;
#X connect 74 0 71 0;
#X connect 75 0 3 0;
#X connect 76 0 43 0;
#X connect 78 0 63 0;
#X connect 78 1 68 0;
#X connect 79 0 73 0;
#X connect 79 1 74 0;
#X connect 80 0 73 0;
#X connect 80 1 74 0;
#X connect 81 0 73 0;
#X connect 81 1 74 0;
#X connect 82 0 73 0;
#X connect 82 1 74 0;
#X connect 83 0 73 0;
#X connect 83 1 74 0;
#X connect 84 0 73 0;
#X connect 84 1 74 0;
#X connect 85 0 73 0;
#X connect 85 1 74 0;
#X connect 86 0 73 0;
#X connect 86 1 74 0;
#X connect 87 0 36 0;
#X connect 88 0 21 0;
#X connect 88 1 21 1;
#X connect 88 1 104 0;
#X connect 89 0 25 0;
#X connect 89 0 51 0;
#X connect 90 0 91 0;
#X connect 92 0 94 0;
#X connect 93 0 37 0;
#X connect 94 0 37 0;
#X connect 95 0 92 0;
#X connect 95 0 93 0;
#X connect 96 0 30 0;
#X connect 97 0 30 0;
#X connect 98 0 30 0;
#X connect 99 0 30 0;
#X connect 101 0 102 0;
#X connect 102 0 103 0;
#X connect 102 0 106 0;
#X connect 104 0 105 0;
#X connect 105 2 107 0;
#X connect 107 0 102 0;
